<svg xmlns="http://www.w3.org/2000/svg" xmlns:xlink="http://www.w3.org/1999/xlink" width="470" height="468"><defs><filter id="a" width="111.8%" height="111.9%" x="-5.9%" y="-3.9%" filterUnits="objectBoundingBox"><feOffset dy="5" in="SourceAlpha" result="shadowOffsetOuter1"/><feGaussianBlur in="shadowOffsetOuter1" result="shadowBlurOuter1" stdDeviation="4"/><feColorMatrix in="shadowBlurOuter1" result="shadowMatrixOuter1" values="0 0 0 0 0 0 0 0 0 0 0 0 0 0 0 0 0 0 0.078125 0"/><feOffset dy="4" in="SourceAlpha" result="shadowOffsetOuter2"/><feGaussianBlur in="shadowOffsetOuter2" result="shadowBlurOuter2" stdDeviation="5.5"/><feColorMatrix in="shadowBlurOuter2" result="shadowMatrixOuter2" values="0 0 0 0 0 0 0 0 0 0 0 0 0 0 0 0 0 0 0.210824275 0"/><feMerge><feMergeNode in="shadowMatrixOuter1"/><feMergeNode in="shadowMatrixOuter2"/></feMerge></filter><path id="b" d="M9.635 132.808C24.782 59.782 71.388 19.109 144.085 6.822c53.74-9.081 107.5-9.196 161.15.255 74.852 13.185 119.85 56.23 134.185 130.36 11.075 57.29 11.249 115.191-.174 172.427-15.324 72.52-63.132 117.285-135.561 129.527-53.74 9.08-107.5 9.195-161.15-.255-74.852-13.186-120.05-58.38-134.384-132.509-11.64-57.668-10.52-115.935 1.484-173.82z"/></defs><g fill="none" fill-rule="evenodd"><g transform="translate(11 7)"><use fill="#000" filter="url(#a)" xlink:href="#b"/><use fill="#5BB0F3" xlink:href="#b"/></g><path fill="#FFF" d="M196.077 298.418c-32.836 0-59.456-26.619-59.456-59.456 0-32.836 26.62-59.456 59.456-59.456 32.837 0 59.456 26.62 59.456 59.456h-20.502c0-21.513-17.44-38.954-38.954-38.954-21.513 0-38.954 17.44-38.954 38.954s17.44 38.954 38.954 38.954c.343 0 .685-.004 1.025-.013v.013h107.433l.013-.01c.409.007.818.01 1.229.01 37.649 0 68.17-30.75 68.17-68.682s-30.521-68.682-68.17-68.682c-23.197 0-43.687 11.673-56 29.506l-17.821-14.43C248.329 132.84 275.063 118 305.264 118c49.821 0 90.21 40.388 90.21 90.21 0 48.623-38.471 88.262-86.635 90.139v.07H196.077zm-11.276-179.393h19.477v41.004h-19.477v-41.004zm0 202.97h19.477V363h-19.477v-41.004zm-71.757-90.208v19.477H72.04v-19.477h41.004zm29.44-56.09-13.772 13.773-28.995-28.995 13.773-13.772 28.994 28.994zm0 126.243-28.994 28.994-13.773-13.772 28.995-28.995 13.772 13.773z"/></g></svg>